PathFileType	4	(X/Y/Z)	C:/Users/opensim2020/Desktop/walking_exp_matlab/subject06_walking21_straight_02.trc	
DataRate	CameraRate	NumFrames	NumMarkers	Units	OrigDataRate	OrigDataStartFrame	OrigNumFrames	
100.00	100.00	7	44	mm	100.00	1282	172	
Frame#	Time	LFHD			RFHD			LBHD			RBHD			C7			T10			CLAV			STRN			RBAK			LSHO			LUPA			LELB			LFRM			LWRA			LWRB			LFIN			RSHO			RUPA			RELB			RFRM			RWRA			RWRB			RFIN			LASI			RASI			LPSI			RPSI			LTHI			LKNE			LTIB			LANK			LHEE			LTOE			RTHI			RKNE			RTIB			RANK			RHEE			RTOE			*39			*40			*41			*42			*43			
		X1	Y1	Z1	X2	Y2	Z2	X3	Y3	Z3	X4	Y4	Z4	X5	Y5	Z5	X6	Y6	Z6	X7	Y7	Z7	X8	Y8	Z8	X9	Y9	Z9	X10	Y10	Z10	X11	Y11	Z11	X12	Y12	Z12	X13	Y13	Z13	X14	Y14	Z14	X15	Y15	Z15	X16	Y16	Z16	X17	Y17	Z17	X18	Y18	Z18	X19	Y19	Z19	X20	Y20	Z20	X21	Y21	Z21	X22	Y22	Z22	X23	Y23	Z23	X24	Y24	Z24	X25	Y25	Z25	X26	Y26	Z26	X27	Y27	Z27	X28	Y28	Z28	X29	Y29	Z29	X30	Y30	Z30	X31	Y31	Z31	X32	Y32	Z32	X33	Y33	Z33	X34	Y34	Z34	X35	Y35	Z35	X36	Y36	Z36	X37	Y37	Z37	X38	Y38	Z38	X39	Y39	Z39	X40	Y40	Z40	X41	Y41	Z41	X42	Y42	Z42	X43	Y43	Z43	X44	Y44	Z44	

22	0.210	1486.64709	1201.32068	1663.38623	1355.25317	1203.42834	1649.99072	1489.98132	1333.92078	1607.59045	1361.50745	1334.67078	1599.70764	1428.35474	1333.88269	1447.79431	1418.67810	1363.15576	1118.94580	1433.11328	1222.50842	1373.37622	1437.86279	1179.36353	1200.18958	1342.38464	1401.18542	1277.71594	1591.39209	1294.74683	1399.52295	1654.00256	1325.23535	1197.38635	1660.08203	1344.05225	1085.85217	1684.32642	1337.18140	935.72723	1656.95154	1276.47803	816.95734	1678.21887	1345.06665	816.78387	1687.39880	1310.85754	732.47833	1269.97900	1262.15466	1407.00610	1177.21765	1279.33289	1209.01672	1161.72339	1252.03174	1091.53247	1148.19019	1190.75281	990.37994	1188.69373	1076.18127	896.62122	1146.56311	1122.49268	871.59845	1149.23511	1054.20984	822.23682	1525.62146	1182.21826	968.67676	1308.60522	1187.92029	967.06262	1505.97571	1341.32410	984.14319	1337.58228	1338.65149	987.90552	1594.28845	1157.22485	662.50427	1568.26245	1094.17920	512.99225	1574.93738	1138.21753	263.37454	1544.62207	1150.54712	90.04923	1497.60376	1189.11145	73.49258	1548.77295	1011.46991	55.51900	1277.45496	1265.69263	626.52203	1307.89453	1277.65393	501.79974	1331.34973	1375.63171	250.12708	1391.25903	1425.89282	75.34007	1439.55786	1466.38330	54.61378	1379.77429	1278.25989	36.77662	1428.35864	1303.01270	1699.52087												 
23	0.220	1488.02905	1189.47644	1661.26379	1356.69666	1191.72522	1648.16724	1491.50244	1321.97668	1605.38599	1363.10168	1323.00708	1597.76929	1429.73389	1322.00415	1445.76990	1419.36511	1351.31726	1116.85669	1434.05090	1210.58020	1371.32605	1438.37500	1167.45544	1198.12573	1343.37671	1389.50562	1275.81238	1592.66418	1282.19165	1397.19080	1654.76733	1314.24329	1195.18018	1660.49426	1334.82861	1084.15393	1684.34851	1332.27100	933.91742	1655.95959	1276.51453	812.89380	1678.49280	1344.41895	815.40808	1686.87463	1313.38306	729.62158	1271.13867	1250.63953	1405.28711	1177.79211	1267.11023	1207.61194	1162.07910	1239.05847	1090.43445	1148.74377	1176.05847	990.56635	1189.95361	1059.65967	899.29291	1147.59363	1105.22864	873.25842	1150.67126	1035.69897	825.39001	1525.90552	1169.97876	966.90704	1308.91370	1176.50745	965.04108	1506.85803	1329.21411	982.21991	1338.24133	1326.92102	985.92932	1595.67676	1145.30078	660.82690	1569.64319	1082.06946	511.38083	1575.93420	1112.47900	259.40472	1545.35205	1113.87903	85.67085	1498.38916	1151.73950	67.34950	1547.97107	973.10944	58.10159	1278.19031	1256.79590	624.73590	1308.48181	1270.51904	500.17590	1331.88049	1372.18311	249.77316	1391.72632	1425.03320	75.72144	1439.87549	1465.94177	55.27306	1379.89270	1277.81287	36.43565	1430.00671	1291.25000	1697.45886												 
24	0.230	1489.45178	1177.49536	1659.00891	1358.13147	1179.91101	1646.15637	1493.12244	1309.98352	1603.05750	1364.64099	1311.17493	1595.64502	1431.11487	1309.98730	1443.63049	1420.00903	1339.38330	1114.65710	1435.03589	1198.50452	1369.13123	1438.99707	1155.38428	1195.89844	1344.42981	1377.67542	1273.77209	1593.92554	1269.49292	1394.71619	1655.57629	1303.16174	1192.88196	1660.79907	1325.54126	1082.18359	1684.39954	1327.03821	932.14911	1655.87769	1275.39734	809.45288	1678.85168	1342.92529	814.10870	1686.46277	1315.18164	727.14691	1272.32825	1239.04248	1403.37329	1178.43604	1254.83093	1205.98035	1162.52136	1226.13306	1089.10437	1149.40552	1161.37061	990.45319	1191.14075	1043.52380	901.65137	1148.64978	1088.26062	874.64575	1151.93213	1017.81818	828.12006	1526.63440	1157.20300	965.22943	1309.45898	1164.73303	962.80621	1507.49072	1316.74182	980.10693	1339.00159	1315.02466	983.90851	1596.88684	1133.95166	658.61810	1571.09058	1070.28381	509.42822	1577.03516	1087.48450	256.03232	1546.00879	1077.90027	82.33817	1499.17004	1115.18213	62.58360	1546.77502	935.30188	61.31529	1278.96741	1247.81274	622.85004	1308.97510	1263.29224	498.41196	1332.62427	1368.79102	249.37903	1391.96301	1424.38477	76.14924	1440.16711	1465.52368	56.06443	1379.94116	1277.55847	36.38856	1431.67102	1279.40063	1695.22888												 
25	0.240	1490.96448	1165.47156	1656.71167	1359.57971	1168.24658	1644.06702	1494.65662	1297.89136	1600.61707	1366.27710	1299.31384	1593.52063	1432.51208	1297.80103	1441.38110	1420.72253	1327.34241	1112.39404	1436.06885	1186.38220	1366.80762	1439.55835	1143.31274	1193.59912	1345.45874	1365.75720	1271.62744	1595.24878	1256.66418	1392.15820	1656.38599	1292.04907	1190.51892	1661.12646	1316.43188	1080.35474	1684.54175	1321.58337	930.46729	1655.49487	1273.87061	806.05438	1679.41382	1340.86340	813.15326	1686.20715	1316.22717	725.03479	1273.51477	1227.30945	1401.34607	1179.00586	1242.65771	1204.25269	1162.93201	1213.28870	1087.70313	1149.98669	1146.96777	990.24902	1192.33594	1027.67542	903.76312	1149.66699	1071.70251	875.85571	1153.29089	1000.50525	830.79468	1526.75342	1144.83337	963.11090	1309.94897	1153.11401	960.45844	1508.23682	1304.28503	977.96881	1339.74036	1303.12964	981.75128	1597.96484	1123.16150	656.00000	1572.45300	1058.82178	507.13177	1578.16443	1063.15002	253.13338	1546.71094	1042.96033	80.18472	1499.82214	1079.29443	58.78162	1545.59875	899.02722	65.27832	1279.70544	1238.74121	620.99957	1309.35327	1255.95093	496.60355	1332.89417	1365.13330	249.15160	1392.21716	1423.65417	76.72103	1440.45898	1465.16479	57.11825	1380.05115	1277.13733	35.92306	1433.40784	1267.54590	1692.93701												 
26	0.250	1492.44727	1153.43921	1654.36902	1360.96753	1156.32568	1641.84192	1496.34387	1285.75049	1598.08228	1367.79834	1287.31738	1591.10815	1433.92737	1285.53870	1439.07971	1421.44971	1315.23645	1110.02063	1437.09045	1174.03040	1364.42468	1440.18542	1131.08093	1191.20703	1346.51099	1353.74939	1269.46411	1596.55225	1243.67554	1389.51086	1657.21814	1280.95703	1188.13599	1661.54834	1307.37146	1078.43738	1684.68494	1315.80554	928.72272	1655.43982	1271.42822	803.23767	1679.94446	1338.11035	812.29218	1686.04321	1316.46765	723.26996	1274.86731	1215.67859	1399.28503	1179.69714	1230.31470	1202.37939	1163.37708	1200.51953	1086.17200	1150.65295	1132.71936	989.83466	1193.51196	1012.16864	905.55109	1150.73120	1055.52100	876.80908	1154.76501	983.42035	833.07520	1527.05884	1132.21387	960.99640	1310.47144	1141.24011	958.04657	1509.06311	1291.71667	975.75775	1340.59021	1291.15393	979.52228	1599.71240	1112.50281	653.31024	1573.69873	1047.59448	504.58969	1579.31470	1039.73950	250.60277	1547.55640	1009.40625	79.09618	1500.96802	1045.00085	56.42669	1544.75623	864.34900	70.05637	1280.29773	1229.67896	619.15002	1309.78223	1248.29126	494.75528	1333.37854	1361.30115	248.88367	1392.41882	1422.89343	77.41409	1440.65710	1464.66541	58.23909	1380.23926	1276.88794	35.84818	1435.10132	1255.57922	1690.53552												 
27	0.260	1493.91345	1141.26978	1652.00317	1362.54419	1144.31018	1639.74707	1497.88318	1273.48572	1595.46973	1369.46716	1275.27124	1588.69922	1435.38416	1273.16687	1436.73181	1422.20178	1303.00952	1107.70728	1438.08167	1161.64099	1362.01001	1440.82617	1118.64136	1188.80493	1347.69458	1341.58643	1267.22729	1597.91724	1230.63916	1386.86121	1658.11438	1269.89551	1185.85034	1662.08130	1298.29431	1076.66699	1685.52637	1310.06104	927.63861	1655.54175	1268.38306	800.64099	1680.82922	1334.87341	811.75421	1685.89514	1315.84326	721.80078	1276.09680	1203.63562	1397.13867	1180.46179	1218.03284	1200.50940	1163.87805	1187.74170	1084.53455	1151.30713	1118.71204	989.29797	1194.64673	997.11102	907.04327	1151.81909	1039.83252	877.52283	1156.09436	966.91772	834.98083	1527.42700	1119.39404	958.90466	1311.00781	1129.33447	955.65234	1510.03625	1278.89319	973.40851	1341.52197	1279.14331	977.14508	1602.04785	1101.65039	650.55664	1574.91260	1036.51355	501.88123	1580.47498	1017.22864	248.68932	1548.34204	977.57068	78.76332	1502.18311	1012.56494	55.02197	1544.08630	831.77216	75.24626	1281.10242	1220.25586	617.23090	1310.31104	1240.29297	492.93677	1333.89502	1357.38098	248.75645	1392.62830	1422.10608	78.31588	1440.94458	1464.29309	59.85117	1380.39209	1276.65369	35.66143	1436.85791	1243.58582	1688.12183												 
28	0.270	1495.40942	1129.08911	1649.66455	1364.01782	1132.29822	1637.61853	1499.56689	1261.16797	1592.87048	1371.02063	1263.06885	1586.30408	1436.81360	1260.67065	1434.34949	1423.04370	1290.55396	1105.30518	1439.18896	1149.02637	1359.68970	1441.45642	1106.11560	1186.38770	1348.89929	1329.37976	1264.98523	1599.29504	1217.48364	1384.21948	1659.09424	1258.87048	1183.65515	1662.76965	1289.13342	1075.01123	1685.90015	1303.57275	926.07489	1655.76599	1264.55823	798.29688	1681.35925	1330.62866	810.97028	1685.77795	1314.21680	720.50372	1277.31995	1191.46252	1394.98181	1181.16992	1205.85889	1198.59106	1164.42163	1175.12024	1082.85803	1151.98511	1104.91467	988.59369	1195.82092	982.32019	908.20496	1152.86987	1024.49976	877.99097	1157.40186	951.03418	836.54407	1527.87695	1106.49280	956.73651	1311.38171	1118.78198	952.93817	1510.94287	1265.34778	970.82434	1342.63184	1267.06287	974.80255	1604.00342	1090.39551	647.69415	1576.26819	1025.27881	499.16153	1581.48364	995.74811	247.25984	1549.21594	947.98804	79.20552	1503.25952	982.28925	54.12845	1543.52600	801.64032	81.10226	1281.74744	1210.57019	615.30420	1310.76184	1232.02844	491.19891	1334.46985	1353.20215	248.81415	1392.92651	1421.30774	79.59692	1441.18555	1463.78552	61.71996	1380.61719	1276.51624	35.57145	1438.52478	1231.55127	1685.65247												 
